<?xml version="1.0" encoding="UTF-8"?>
<svg width="76px" height="20px" viewBox="0 0 76 20" version="1.1" xmlns="http://www.w3.org/2000/svg" xmlns:xlink="http://www.w3.org/1999/xlink">
    <!-- Generator: Sketch 58 (84663) - https://sketch.com -->
    <title>02 Branding/Logo_Color</title>
    <desc>Created with Sketch.</desc>
    <g id="02-Branding/Logo_Color" stroke="none" stroke-width="1" fill="none" fill-rule="evenodd">
        <g id="Group-16">
            <path d="M2.43039697,9.12487395 L2.43039697,13.7135057 L8.500015,17.3844602 L14.5759924,13.7135057 L14.5759924,7.68268687 L9.39536915,10.8030597 C8.82614373,11.1438375 8.17376628,11.1438375 7.60454086,10.8030597 L0.556416649,6.5486878 C-0.185472216,6.09636717 -0.185472216,4.96224512 0.556416649,4.51656541 L7.60454086,0.255675529 C8.17376628,-0.0852251765 8.82614373,-0.0852251765 9.39536915,0.255675529 L14.5759924,3.38908429 L12.1903812,4.82463044 L8.500015,2.60238089 L6.77314058,3.65127776 L3.65199984,5.54566249 L5.29572223,6.53552894 L8.500015,8.48906707 L15.049227,4.54276016 C15.4202315,4.32643825 15.925503,4.352633 16.2963875,4.54927811 C16.6993088,4.76560002 17,5.1917259 17,5.71623583 L17,14.1134368 C17,14.7689205 16.6801107,15.339179 16.1300834,15.6735617 L9.39536915,19.7443245 C8.83262311,20.0852252 8.17376628,20.0852252 7.60454086,19.7443245 L0.869826599,15.6735617 C0.319799337,15.339179 0.00638938737,14.7754384 0.00638938737,14.1134368 L0.00638938737,12.7826697 L0.00638938737,7.66965098 L2.43039697,9.12487395 Z" id="Fill-12" fill="#175CFF"></path>
            <path d="M32.7908118,12.4239132 C32.7908118,10.8797344 31.9562783,9.91048617 30.1662679,9.55520019 L28.6310513,9.26440147 C27.5927545,9.05760588 27.1977762,8.70219868 27.1977762,8.06253846 C27.1977762,7.35184529 27.8475483,6.88661582 28.8731772,6.88661582 C29.9369295,6.88661582 30.7332201,7.2936613 30.7332201,8.28230424 L32.6315059,8.28230424 C32.6315059,6.10488969 30.7969185,5.28425303 28.8986327,5.28425303 C26.5797936,5.28425303 25.2166704,6.56999795 25.2166704,8.23709043 C25.2166704,9.71666076 26.1784813,10.6599687 27.9112468,10.9895567 L29.4401294,11.2867799 C30.3828188,11.4676352 30.7842505,11.7972232 30.7842505,12.4755515 C30.7842505,13.2573989 30.0579925,13.7484475 28.9814526,13.7484475 C27.6182099,13.7484475 26.9556503,13.1733957 26.9556503,12.372275 L25,12.372275 C25,14.1878578 26.5097611,15.3895996 28.9814526,15.3895996 C31.1218643,15.3895996 32.7908118,14.3234992 32.7908118,12.4239132 L32.7908118,12.4239132 Z M72.681107,8.02387035 C71.6428101,8.02387035 70.8082766,8.4437648 70.4452073,9.07700054 L70.4452073,5 L68.5469215,5 L68.5469215,15.2669284 L70.3114764,15.2669284 L70.4197518,14.3106503 C70.7700336,14.9243701 71.6173546,15.4025698 72.681107,15.4025698 C74.6113018,15.4025698 76,14.0780355 76,11.7132201 C76,9.4452567 74.6941218,8.02387035 72.681107,8.02387035 L72.681107,8.02387035 Z M72.2671267,13.6968092 C71.2414979,13.6968092 70.4706628,12.9601757 70.4706628,11.7132201 C70.4706628,10.4855379 71.2414979,9.72308524 72.2671267,9.72963094 C73.3054236,9.73605542 74.0571372,10.4855379 74.0571372,11.7132201 C74.0571372,12.940781 73.3054236,13.6968092 72.2671267,13.6968092 L72.2671267,13.6968092 Z M60.4821943,11.7132201 C60.4821943,13.9294239 62.0046234,15.4025698 64.1513691,15.4025698 C66.2917808,15.4025698 67.8143294,13.9294239 67.8143294,11.7132201 C67.8143294,9.50986517 66.2917808,8.01090017 64.1513691,8.01090017 C62.0046234,8.01090017 60.4821943,9.50986517 60.4821943,11.7132201 L60.4821943,11.7132201 Z M62.4123891,11.7002499 C62.4123891,10.4273539 63.1002847,9.63265763 64.1513691,9.63265763 C65.202573,9.63265763 65.8904685,10.4273539 65.8904685,11.7002499 C65.8904685,12.9601757 65.202573,13.7742666 64.1513691,13.7742666 C63.1002847,13.7742666 62.4123891,12.9601757 62.4123891,11.7002499 L62.4123891,11.7002499 Z M58.526544,10.1689201 C59.4820209,9.76829905 59.7687237,8.85735599 59.7687237,8.07550864 C59.7687237,6.43435653 58.6348194,5.42644015 56.4944077,5.42644015 L52.3792241,5.42644015 L52.3792241,15.2669284 L56.774657,15.2669284 C58.8132468,15.2669284 60.09355,14.2394961 60.09355,12.5079164 C60.09355,11.4547862 59.5521728,10.5243272 58.526544,10.1689201 L58.526544,10.1689201 Z M57.8002859,8.30812338 C57.8002859,9.00596759 57.3416092,9.55520019 56.4243752,9.55520019 L54.309419,9.55520019 L54.309419,7.10638159 L56.3542232,7.10638159 C57.3543967,7.10638159 57.8002859,7.62324935 57.8002859,8.30812338 L57.8002859,8.30812338 Z M56.6026831,13.5869869 L54.309419,13.5869869 L54.309419,11.099379 L56.6409261,11.099379 C57.5137026,11.099379 58.0678672,11.5646085 58.0678672,12.372275 C58.0678672,13.1605468 57.5327045,13.5869869 56.6026831,13.5869869 L56.6026831,13.5869869 Z M48.1494312,8.02387035 C47.0728913,8.02387035 46.2383578,8.51491897 45.8879565,9.12863883 L45.7796811,8.15951178 L44.0151261,8.15951178 L44.0151261,18 L45.900744,18 L45.900744,14.3622886 C46.2638133,14.9955243 47.1238023,15.4154188 48.1494312,15.4154188 C50.1751139,15.4154188 51.4683242,13.9810622 51.4683242,11.726069 C51.4683242,9.3484046 50.0668385,8.02387035 48.1494312,8.02387035 L48.1494312,8.02387035 Z M47.7353314,13.7096582 C46.7097025,13.7096582 45.938987,12.9731459 45.938987,11.7390392 C45.938987,10.4985081 46.7097025,9.72963094 47.7353314,9.72963094 C48.7737478,9.74247991 49.5253418,10.4985081 49.5253418,11.726069 C49.5253418,12.9731459 48.7737478,13.7096582 47.7353314,13.7096582 L47.7353314,13.7096582 Z M41.1294544,7.06759226 L43.0405277,7.06759226 L43.0405277,5.21964456 L41.1294544,5.21964456 L41.1294544,7.06759226 Z M41.1549098,15.2669284 L43.0405277,15.2669284 L43.0405277,8.15951178 L41.1549098,8.15951178 L41.1549098,15.2669284 Z M37.4027956,8.02387035 C36.4090757,8.02387035 35.7083926,8.39212651 35.3262018,8.95420808 L35.3262018,5 L33.440584,5 L33.440584,15.2669284 L35.3262018,15.2669284 L35.3262018,11.4806053 C35.3262018,10.4403241 35.8803665,9.76829905 36.8805399,9.75545009 C37.8233488,9.72963094 38.3775135,10.3305018 38.3775135,11.5322436 L38.3775135,15.2669284 L40.2631314,15.2669284 L40.2631314,11.2479906 C40.2631314,8.72159335 38.7151273,8.02387035 37.4027956,8.02387035 L37.4027956,8.02387035 Z" id="Fill-14" fill="#0A083B"></path>
        </g>
    </g>
</svg>