<svg xmlns="http://www.w3.org/2000/svg" viewBox="0 0 1202.1 260" fill="#ffffff">
<path d="M400.68,88.39c-5.67-7.35-16.8-12.81-27.31-12.81-12.18,0-26.25,5.88-26.25,20.37,0,13.66,11.55,17.64,28.35,22.9,19.11,5.88,43.48,14.28,43.48,43.47,0,31.93-25,47.47-54.19,47.47-19.32,0-39.28-7.35-51.04-21.21l18.9-17.64c7.35,10.08,20.79,16.38,32.55,16.38,12.39,0,26.88-6.1,26.88-22.06s-15.54-19.95-34.23-25.83c-18.07-5.68-37.59-14.49-37.59-42.21,0-30.25,27.51-43.69,54.39-43.69,14.92,0,31.93,5.25,43.27,15.96l-17.22,18.9Z"/>
<path d="M428.41,125.35v-20.16h17.64v-29.2h24.79v29.2h25.2v20.16h-25.2v46.84c0,9.03,2.1,15.54,13.23,15.54,3.35,0,7.76-.63,10.71-2.1l.84,19.74c-4.41,1.68-11.13,2.74-16.81,2.74-26.67,0-32.76-16.38-32.76-35.71v-47.04h-17.64Z"/>
<path d="M576.48,160.01h-5.67c-15.96,0-38.44,1.88-38.44,16.8,0,9.66,9.03,12.61,17.64,12.61,17.23,0,26.46-9.87,26.46-25.84v-3.57ZM576.9,193.19h-.63c-5.04,8.82-17.02,15.33-31.3,15.33-16.17,0-37.8-7.76-37.8-31.29,0-30.03,37.8-34.23,69.31-34.23v-2.52c0-12.39-10.5-18.48-23.1-18.48-10.71,0-21,5.04-27.52,11.55l-13.02-15.34c11.34-10.5,27.31-15.96,42.64-15.96,36.13,0,44.95,22.26,44.95,42.42v61.33h-23.52v-12.81Z"/>
<path d="M633.83,125.35h-19.11v-20.16h19.11v-14.92c0-24.16,9.45-45.58,40.75-45.58,5.46,0,9.03.42,12.81,1.47l-1.68,21.42c-2.72-.84-6.08-1.47-9.65-1.47-14.49,0-17.02,12.6-17.02,22.69v16.38h23.32v20.16h-23.32v80.65h-25.2v-80.65Z"/>
<path d="M697.47,125.35h-19.11v-20.16h19.11v-14.92c0-24.16,9.45-45.58,40.75-45.58,5.46,0,9.03.42,12.81,1.47l-1.68,21.42c-2.72-.84-6.08-1.47-9.66-1.47-14.49,0-17.01,12.6-17.01,22.69v16.38h23.32v20.16h-23.32v80.65h-25.2v-80.65Z"/>
<path d="M815.94,122.83c-18.49,0-29.61,17.02-29.61,32.77s11.12,32.34,29.61,32.34c19.54,0,28.99-17.01,28.99-32.76s-9.45-32.35-28.99-32.35M787.16,47.22v70.78h.63c5.25-6.51,15.33-15.74,33.82-15.74,28.77,0,48.94,23.1,48.94,52.92s-18.9,53.77-49.57,53.77c-14.07,0-27.73-6.51-34.65-18.06h-.42v15.12h-23.94V47.22h25.2Z"/>
<path d="M957.08,160.01h-5.67c-15.96,0-38.44,1.88-38.44,16.8,0,9.66,9.03,12.61,17.64,12.61,17.22,0,26.46-9.87,26.46-25.84v-3.57ZM957.51,193.19h-.63c-5.04,8.82-17.02,15.33-31.3,15.33-16.17,0-37.8-7.76-37.8-31.29,0-30.03,37.8-34.23,69.31-34.23v-2.52c0-12.39-10.5-18.48-23.1-18.48-10.71,0-21,5.04-27.52,11.55l-13.02-15.34c11.34-10.5,27.31-15.96,42.64-15.96,36.12,0,44.94,22.26,44.94,42.42v61.33h-23.52v-12.81Z"/>
<path d="M1065.68,132.08c-4.41-5.88-12.81-10.92-22.05-10.92-7.98,0-16.17,2.94-16.17,10.92s7.77,9.87,21.84,13.23c14.92,3.57,32.56,10.29,32.56,30.03,0,24.58-19.95,33.61-42.01,33.61-15.54,0-31.71-5.88-41.38-16.59l16.6-15.55c5.46,7.14,14.92,12.61,25.83,12.61,7.36,0,16.17-2.94,16.17-11.98,0-8.4-7.77-10.92-23.1-14.49-14.92-3.57-29.82-9.66-29.82-28.56,0-22.47,20.16-32.14,40.11-32.14,14.49,0,29.62,5.04,37.81,15.33l-16.38,14.49Z"/>
<path d="M1174.69,145.52c0-13.02-7.35-24.37-23.73-24.37-14.92,0-26.88,10.3-27.94,24.37h51.67ZM1199.68,163.58h-76.66c1.06,14.28,14.08,24.79,28.78,24.79,12.6,0,21-5.04,26.68-13.02l16.8,13.44c-9.87,13.45-24.16,20.16-43.27,20.16-31.09,0-54.19-19.94-54.19-52.71s22.9-53.98,53.35-53.98c28.15,0,48.73,18.27,48.73,54.6,0,2.31,0,4.42-.21,6.72"/>
<g>
<path d="M235.86,67.21c-.09-.16-.19-.32-.28-.48l8.71-55.31-53.35,10.07C171.6,9.91,149.41,3.73,126.28,3.73,56.65,3.73,0,60.37,0,129.99s56.65,126.28,126.28,126.28,126.28-56.65,126.28-126.28c0-22.05-5.78-43.76-16.7-62.79ZM126.28,233.73c-57.19,0-103.73-46.53-103.73-103.73S69.09,26.27,126.28,26.27c9.46,0,18.72,1.25,27.58,3.69,11.66,3.19,22.65,8.41,32.54,15.49l29.29-5.53,1.18-.22-.19,1.21-4.8,30.5c1.57,2.28,3.05,4.62,4.43,7.02,4.19,7.29,7.45,15.06,9.74,23.11,2.61,9.21,3.96,18.79,3.96,28.45,0,57.2-46.53,103.73-103.73,103.73Z"/>
<path d="M125.34,215.28c-26.28,0-51.11-12.84-66.42-34.35l18.36-13.06c11.09,15.57,29.05,24.87,48.06,24.87s36.97-9.3,48.05-24.86l18.35,13.08c-15.31,21.48-40.13,34.32-66.4,34.32"/>
</g>
</svg>
